<svg xmlns="http://www.w3.org/2000/svg" width="256" height="256"><path fill="#1976D2" fill-opacity=".016" fill-rule="evenodd" d="M0 128.004v128.004l128.25-.254 128.25-.254.254-127.75L257.008 0H0zm.485.496c0 70.4.119 99.053.265 63.672s.146-92.98 0-128S.485 58.1.485 128.5"/><path fill="#1976D2" fill-opacity=".199" fill-rule="evenodd" d="M64.809 78.25c-7.25 13.805-8.882 19.66-9.824 35.25l-.785 13 .263-13c.206-10.183.747-14.5 2.493-19.922l2.231-6.922-3.844-3.29c-2.114-1.81-4.092-3.308-4.395-3.328-1.088-.074-4.243 10.303-5.566 18.308-1.327 8.031-1.34 8.056-.864 1.654l.484-6.5-5.071-2.847c-2.789-1.566-5.263-2.654-5.498-2.419s-.722 3.234-1.08 6.664-.941 5.769-1.293 5.199C31.365 98.972 23.612 96 21.374 96 20.317 96 20 97.947 20 104.435c0 36.581 25.291 67.831 57.612 71.187 4.114.427 6.341.263 6.814-.502.858-1.389-1.284-3.568-3.701-3.763-3.486-.281-13.05-6.96-18.59-12.983C57.041 152.837 51.063 144 52.41 144c.296 0 1.224 1.325 2.061 2.944 2.931 5.667 11.437 14.829 17.57 18.925 3.403 2.272 6.539 4.131 6.97 4.131.43 0-2.244-3.037-5.942-6.75-6.37-6.393-13.12-16.767-14.48-22.25-.341-1.375.509-.086 1.889 2.865 5.212 11.141 13.539 20.808 23.022 26.729 2.375 1.483 1.908.664-2.24-3.93-6.489-7.187-11.672-16.309-13.709-24.129-4.156-15.955.521-35.193 11.185-46.01 2.823-2.863 4.138-4.935 3.651-5.75C80.832 88.173 68.489 74 67.778 74c-.406 0-1.742 1.912-2.969 4.25m18.424 44.974L83.5 148.5h30v-12l-8.75-.289-8.75-.289V127h16v-11H96v-6h18.1l-.3-5.75-.3-5.75-15.267-.276-15.267-.276zm36.434-24.557c-.367.366-.667 11.336-.667 24.377 0 19.579.255 23.922 1.461 24.924 1.047.869 5.799 1.116 16.75.872 13.858-.308 15.633-.554 18.968-2.628 4.092-2.544 7.834-9.154 7.799-13.778-.029-3.869-3.325-11.009-5.794-12.551-1.685-1.053-1.891-2.021-1.455-6.836.461-5.076.24-5.93-2.313-8.965C150.097 98.95 146.705 98 132.699 98c-6.801 0-12.666.3-13.032.667m58.842.583c-6.699 19.533-15.463 48.016-15.003 48.76.337.544 3.476.99 6.975.99h6.364l1.155-3.5 1.155-3.5h7.423c4.082 0 7.719-.113 8.083-.25s1.189 1.325 1.835 3.25c1.142 3.407 1.329 3.508 6.985 3.804 3.196.168 6.211-.096 6.7-.585.518-.518-2.475-11.162-7.187-25.554L194.918 98h-7.99c-5.497 0-8.125.39-8.419 1.25M43.272 111c0 2.475.195 3.487.434 2.25.238-1.237.238-3.263 0-4.5-.239-1.237-.434-.225-.434 2.25M133 113v3.105l5.25-.303c4.853-.279 5.25-.491 5.25-2.802s-.397-2.523-5.25-2.802l-5.25-.303zm-100.842 2c0 1.375.227 1.938.504 1.25.278-.687.278-1.812 0-2.5-.277-.687-.504-.125-.504 1.25m12.094 4.5c.011 2.2.216 2.982.455 1.738s.23-3.044-.02-4-.446.062-.435 2.262m140.457 2.914c-.94 3.528-1.709 6.678-1.709 7s1.8.586 4 .586 4-.264 4-.586c0-1.67-3.502-13.414-4-13.414-.32 0-1.351 2.886-2.291 6.414M45.17 125.5c-.016 1.1.357 2.9.83 4 1.095 2.548 1.095-.081 0-3.5-.644-2.01-.806-2.108-.83-.5m9.988 3.5c0 1.375.227 1.938.504 1.25.278-.687.278-1.812 0-2.5-.277-.687-.504-.125-.504 1.25M133 131.5v4.5h7.893c8.262 0 9.107-.468 9.107-5.047 0-2.786-3.079-3.953-10.434-3.953H133zM56.141 133c0 .825.386 2.4.859 3.5.542 1.261.859 1.445.859.5 0-.825-.386-2.4-.859-3.5-.542-1.261-.859-1.445-.859-.5m-8.07 2.5c0 .55.643 2.125 1.429 3.5s1.429 2.05 1.429 1.5-.643-2.125-1.429-3.5-1.429-2.05-1.429-1.5M45 149.378c0 .207.788.995 1.75 1.75 1.586 1.243 1.621 1.208.378-.378-1.307-1.666-2.128-2.195-2.128-1.372m7 8.122c1.866 1.925 3.617 3.5 3.892 3.5s-1.026-1.575-2.892-3.5-3.617-3.5-3.892-3.5 1.026 1.575 2.892 3.5m31 0c0 3.203.249 3.5 2.927 3.5 1.946 0 3.08-.586 3.384-1.75.435-1.667.463-1.667.573 0 .067 1.018.918 1.75 2.033 1.75 1.054 0 2.145.563 2.424 1.25.392.967.724.939 1.469-.125.529-.756 2.117-1.375 3.527-1.375 1.523 0 2.74-.66 2.998-1.625.396-1.487.443-1.485.549.015.095 1.344 1.394 1.66 7.185 1.748 6.783.103 7.057.017 6.75-2.14-.315-2.222-.502-2.248-16.07-2.248-8.662 0-15.3-.15-14.75-.333C87.783 155.572 87.058 154 85 154c-1.619 0-2 .667-2 3.5m36-.032v3.469l8-.183c4.72-.108 8.006-.607 8.015-1.218.009-.57.467-.361 1.019.464.869 1.298 1.203 1.239 2.485-.441 1.116-1.463 1.481-1.573 1.481-.446 0 2.354 7.695 2.514 8.304.173.432-1.662.472-1.664.58-.036.087 1.318.997 1.75 3.686 1.75 3.129 0 3.53-.277 3.25-2.25-.298-2.097-.813-2.25-7.57-2.25-5.343 0-7.251-.348-7.25-1.321 0-1.005-.366-.955-1.529.207-1.498 1.498-4.471 1.211-4.471-.431 0-.457-.9-.763-2-.68s-2.001.617-2.003 1.188c-.004 1.548-6.828 1.42-7.426-.14-.28-.727-1.422-1.323-2.54-1.323-1.651 0-2.031.649-2.031 3.468m41.094-1.548c-3.826 2.9-2.194 5.067 3.613 4.8 4.053-.186 4.793-.529 4.793-2.22 0-2.28-4.431-3.552-4.6-1.32-.055.726-.392.329-.75-.882-.637-2.158-.698-2.165-3.056-.378m11.881.645c-1.487 3.912-1.388 3.998 4.947 4.248 4.948.195 5.998-.058 6.384-1.54.425-1.631.471-1.635.578-.044.096 1.43 1.021 1.695 5.366 1.535 3.62-.133 5.461-.669 5.93-1.728.569-1.287.691-1.252.75.214.038.963.487 1.75.997 1.75.509 0 1.132-.787 1.384-1.75.39-1.495.474-1.511.573-.111.094 1.333 1.191 1.613 5.866 1.5 5.037-.122 5.75-.387 5.75-2.139 0-1.704-.667-2-4.5-2-2.722 0-4.843-.541-5.367-1.37-.679-1.073-1.034-1.1-1.636-.125-.975 1.578-17.285 1.631-17.809.058-.195-.585-1.217-1.063-2.271-1.063-1.405 0-1.938.734-1.996 2.75l-.079 2.75-1.004-2.75c-1.256-3.44-2.601-3.504-3.863-.185M58 162.378c0 .207.788.995 1.75 1.75 1.586 1.243 1.621 1.208.378-.378-1.307-1.666-2.128-2.195-2.128-1.372m7 5.052c0 .275.9.981 2 1.57s2 .845 2 .57-.9-.981-2-1.57-2-.845-2-.57"/><path fill="#1976D2" fill-opacity=".408" fill-rule="evenodd" d="M63.604 81.793C57.457 94 55.502 102.04 55.531 115c.03 13.302 1.707 20.767 7.136 31.765 3.871 7.841 13.859 19.458 19.471 22.644l3.362 1.909-3.892-3.845c-5.548-5.481-11.12-14.513-13.746-22.283-5.699-16.861-.806-38.13 11.519-50.075l3.492-3.385-7.044-8.365C71.955 78.764 68.389 75 67.905 75s-2.419 3.057-4.301 6.793m-29.258 8.456c-1.597 2.585-1.574 25.021.035 32.617 3.043 14.371 12.093 29.143 23.76 38.781 5.639 4.659 15.3 9.839 20.359 10.917 2.245.478 1.399-.33-3.359-3.21-20.401-12.353-33.479-38.196-31.789-62.819.341-4.969.739-9.907.884-10.973.184-1.352-.946-2.632-3.736-4.233-4.652-2.671-5.12-2.753-6.154-1.08m-14.051 15.884c1.241 21.079 7.252 36.044 19.779 49.241 4.243 4.469 10.323 9.696 13.512 11.615 7.502 4.513 17.724 7.97 23.414 7.918l4.5-.041-4.053-1.269c-17.8-5.575-34.45-22.262-41.507-41.598-2.759-7.561-5.033-22.062-4.608-29.384.174-2.981-.223-3.242-9.239-6.089l-2.408-.761zm63.397-7.492c-.38.381-.692 11.642-.692 25.026V148h31v-11H96v-9.916l7.75-.292 7.75-.292v-10l-7.75-.292-7.75-.292v-5.838l8.75-.289 8.75-.289v-11l-14.558-.276c-8.006-.151-14.869.036-15.25.417m37.058-.065c-.412.417-.75 11.707-.75 25.091V148l16.25-.004c14.451-.003 16.611-.223 19.509-1.991 8.983-5.476 9.896-19.411 1.696-25.862-2.139-1.682-2.401-2.376-1.52-4.022 2.705-5.054-.238-12.623-6.141-15.793-2.507-1.347-6.279-1.857-15.794-2.139-6.875-.203-12.838-.029-13.25.387m58.424 1.131C177.726 102.462 164 144.782 164 146.492c0 1.187 1.365 1.508 6.422 1.508h6.423l1.155-3.5 1.155-3.5h16.556l.928 3.25c.906 3.171 1.08 3.257 7.145 3.548 5.454.261 6.205.077 6.123-1.5-.051-.989-3.539-12.148-7.75-24.798l-7.657-23-7.192-.293c-6.081-.247-7.338-.015-8.134 1.5M133 113v3.105l5.25-.303c4.853-.279 5.25-.491 5.25-2.802s-.397-2.523-5.25-2.802l-5.25-.303zm51.362 9-2.123 8h9.522l-2.123-8c-1.167-4.4-2.354-8-2.638-8s-1.471 3.6-2.638 8M133 132v5h7c5.725 0 7.374-.374 9.051-2.051 1.437-1.437 1.846-2.709 1.365-4.25-1.011-3.242-2.184-3.667-10.166-3.684L133 127zm-49.333 22.667c-.367.366-.667 1.941-.667 3.5 0 2.276.442 2.83 2.25 2.818 1.827-.013 1.968-.201.75-1-1.248-.82-1.271-1.133-.137-1.864 1.151-.742 1.151-.963 0-1.421-.968-.385-1.001-.565-.113-.621.688-.043 1.25-.529 1.25-1.079 0-1.125-2.311-1.356-3.333-.333m36.219-.417c-.063.137-.263 1.511-.444 3.053-.387 3.281 1.835 4.63 4.69 2.846 1.152-.719 1.868-.779 1.868-.157 0 1.618 3.004 1.16 3.664-.559.855-2.228-1.294-4.203-2.864-2.633-1.7 1.7-2.489 1.496-3.09-.8-.412-1.578-3.3-2.899-3.824-1.75m11.366 3.25c.011 2.2.216 2.982.455 1.738s.23-3.044-.02-4-.446.062-.435 2.262m9 0c.011 2.2.216 2.982.455 1.738s.23-3.044-.02-4-.446.062-.435 2.262m36.669-.309-.079 3.309-1.004-2.75c-1.256-3.44-2.601-3.504-3.863-.185-.536 1.411-.975 2.648-.975 2.75s1.637.185 3.638.185c3.224 0 3.67-.31 3.929-2.734.161-1.504-.125-2.993-.637-3.309-.511-.316-.966.914-1.009 2.734m-16.745-1.132c-2.915 1.168-2.528 4.316.584 4.761 1.903.271 2.24-.143 2.24-2.75 0-1.689-.113-3.041-.25-3.007-.137.035-1.296.483-2.574.996m38.594-.396c-.25.46-.163 1.962.194 3.337l.649 2.5.661-2.483c.635-2.388-.568-5.074-1.504-3.354M88.1 158.684l.099 2.816L89 159l.801-2.5.215 2.5c.153 1.774.349 1.992.673.75.252-.963.842-1.75 1.311-1.75s1.082.787 1.361 1.75c.294 1.011.43.694.324-.75-.143-1.927-.815-2.573-2.935-2.816-2.443-.281-2.739-.002-2.65 2.5m6.979 1.066c.043 2.063.306 3.188.583 2.5.278-.687 1.142-1.25 1.921-1.25s1.424-.562 1.432-1.25c.011-.844.319-.77.949.226.761 1.203 1.106 1.018 1.868-1 1.125-2.981.716-3.676-1.219-2.07-.978.812-1.641.857-2.083.143-1.564-2.532-3.529-.994-3.451 2.701m8.301-2.298c-.697 1.815.315 3.548 2.072 3.548 1.53 0 2.458-1.915 1.817-3.75-.597-1.713-3.206-1.577-3.889.202m5.195-.574c-.334.541-.143 1.271.425 1.622s.828.969.579 1.373c-.25.404 1.093.778 2.983.832 2.99.084 3.438-.216 3.438-2.304 0-1.468-.583-2.401-1.5-2.401-.825 0-1.5.675-1.5 1.5s-.45 1.5-1 1.5-.888-.506-.75-1.125c.324-1.459-1.881-2.281-2.675-.997m26.425-.192c0 .513.618 1.777 1.373 2.81 1.323 1.808 1.4 1.794 2.092-.384.395-1.245.452-2.529.126-2.854-.325-.325-.591-.011-.591.698 0 1.032-.299 1.041-1.5.044-.825-.685-1.5-.826-1.5-.314m7.688-.04c-1.541 1.54-.648 4.354 1.382 4.354 1.555 0 1.99-.539 1.75-2.172-.332-2.255-1.94-3.375-3.132-2.182m4.412 2.104.099 2.75.801-2.5c.462-1.442.843-1.809.9-.867.055.899 1.112 1.905 2.35 2.237 3.523.944 3.911.776 3.57-1.542-.397-2.692-2.809-3.676-2.85-1.161-.029 1.724-.092 1.729-1.05.083-1.613-2.77-3.935-2.162-3.82 1m17.312-1.381c-.751 1.956.272 3.631 2.217 3.631.981 0 1.398-.76 1.191-2.172-.388-2.637-2.594-3.581-3.408-1.459m17.688 1.381.099 2.75.801-2.5.801-2.5.215 2.5c.153 1.774.349 1.992.673.75.252-.963.875-1.75 1.384-1.75.51 0 .934.787.942 1.75.013 1.496.157 1.532.985.25q.969-1.5.985-.25c.022 1.797 2.965 1.543 3.679-.317.884-2.304-1.207-4.057-3.033-2.542-.988.82-1.66.871-2.101.158-.356-.577-1.746-1.049-3.089-1.049-2.02 0-2.424.474-2.341 2.75m12-.073.099 2.823.765-2.5.765-2.5 1.126 2.5 1.125 2.5-.24-2.49c-.14-1.452-.97-2.629-1.99-2.823-1.349-.257-1.727.313-1.65 2.49m7.618-1.385c-.293.764-.17 1.977.274 2.694 1.121 1.815 4.232.414 3.82-1.721-.415-2.159-3.369-2.861-4.094-.973M207 158.5c0 1.556.567 2.5 1.5 2.5s1.5-.944 1.5-2.5-.567-2.5-1.5-2.5-1.5.944-1.5 2.5m-110.417-.634c-.431.697-.513 1.537-.183 1.867.895.895 1.871-.421 1.387-1.871-.338-1.016-.574-1.016-1.204.004m30.417.693c0 .857.457 1.276 1.016.931.559-.346.758-1.047.441-1.559-.857-1.387-1.457-1.129-1.457.628m6.158.441c0 1.375.227 1.938.504 1.25.278-.687.278-1.812 0-2.5-.277-.687-.504-.125-.504 1.25m26.395-1.085a1.116 1.116 0 0 0 .362 1.532c.521.322 1.21.159 1.532-.362a1.116 1.116 0 0 0-.362-1.532 1.116 1.116 0 0 0-1.532.362M180.158 159c0 1.375.227 1.938.504 1.25.278-.687.278-1.812 0-2.5-.277-.687-.504-.125-.504 1.25m22.842-.441c0 .857.457 1.276 1.016.931.559-.346.758-1.047.441-1.559-.857-1.387-1.457-1.129-1.457.628M121 159c0 .55.45 1 1 1s1-.45 1-1-.45-1-1-1-1 .45-1 1"/><path fill="#1976D2" fill-opacity=".294" fill-rule="evenodd" d="M34.539 90.75c-.371.963-.925 6.25-1.231 11.75-1.195 21.485 5.446 39.342 20.072 53.971 5.025 5.026 10.407 9.299 14.12 11.212 9.836 5.066 11.462 4.869 3.923-.475-11.504-8.155-20.015-19.77-24.952-34.051-2.997-8.669-4.431-27.348-2.677-34.884l.983-4.227-4.514-2.523c-5.369-3.001-4.89-2.936-5.724-.773m-13.687 8.097c-.344 6.166.43 16.118 1.752 22.519 5.24 25.379 24.7 46.722 47.499 52.097 8.658 2.041 11.562 1.874 5.265-.302-15.825-5.47-29.862-19.004-37.843-36.486-4.124-9.035-5.597-15.336-6.394-27.357l-.631-9.526-4.75-1.799-4.75-1.8zM84 123.527v24.526l14.75-.276 14.75-.277v-10l-8.75-.289-8.75-.289V127h15v-10H95.879l.311-3.75.31-3.75 8-.124 8-.124.302-5.126.303-5.126H84zm36-.101V148l15.25-.022c18.289-.026 22.323-1.261 25.691-7.863 3.546-6.951 2.458-14.072-2.918-19.094-2.687-2.51-2.854-3.048-1.956-6.301 1.233-4.465-.915-10.309-4.858-13.22-2.351-1.736-4.591-2.043-16.959-2.324L120 98.852zm51.687-.558c-4.228 13.128-7.687 24.153-7.687 24.5s2.905.632 6.455.632h6.454l.657-3.5.657-3.5h17.622l1.155 3.5c1.149 3.482 1.185 3.5 7.151 3.5 4.586 0 5.92-.324 5.672-1.38-.178-.758-3.698-11.782-7.823-24.497l-7.5-23.117-7.563-.003-7.563-.003zm-39.297-12.441c-.302.785-.4 2.473-.219 3.75.285 2.012.975 2.364 5.157 2.631 2.701.172 5.454-.212 6.25-.872 2.021-1.678 1.76-4.685-.512-5.901-2.921-1.563-10.026-1.302-10.676.392m51.819 10.823c-1.239 4.537-2.243 8.588-2.231 9s2.272.75 5.022.75 5.01-.338 5.022-.75c.047-1.591-4.512-17.25-5.022-17.25-.296 0-1.552 3.713-2.791 8.25M132 132v5h7.929c8.595 0 11.071-1.201 11.071-5.371 0-3.816-1.881-4.629-10.7-4.629H132zm-11.921 24.583c.048 1.165.285 1.402.604.605.289-.722.253-1.585-.079-1.917s-.568.258-.525 1.312m11.116.917c.02 1.65.244 2.204.498 1.231s.237-2.323-.037-3-.481.119-.461 1.769m31 0c.02 1.65.244 2.204.498 1.231s.237-2.323-.037-3-.481.119-.461 1.769M173.5 156c.34.55.816 1 1.059 1s.441-.45.441-1-.477-1-1.059-1-.781.45-.441 1m25.695 1.5c.02 1.65.244 2.204.498 1.231s.237-2.323-.037-3-.481.119-.461 1.769m-85.78-.362c-.434.702-.292.904.355.504.593-.366 1.285.127 1.538 1.096.411 1.575.472 1.583.576.071.145-2.12-1.503-3.235-2.469-1.671m39 0c-.434.702-.292.904.355.504.593-.366 1.285.127 1.538 1.096.411 1.575.472 1.583.576.071.145-2.12-1.503-3.235-2.469-1.671m6.457.612c-1.243 1.586-1.208 1.621.378.378 1.666-1.307 2.195-2.128 1.372-2.128-.207 0-.995.787-1.75 1.75m7.692-.457c.376.986.935 1.541 1.243 1.233s.001-1.114-.683-1.793c-.988-.98-1.102-.865-.56.56m22.781.25c-.326.849-.369 1.767-.096 2.04.274.273.737-.422 1.03-1.543.624-2.383-.069-2.751-.934-.497m-101.266 1.04c.048 1.165.285 1.402.604.605.289-.722.253-1.585-.079-1.917s-.568.258-.525 1.312m7.116.917c.02 1.65.244 2.204.498 1.231s.237-2.323-.037-3-.481.119-.461 1.769m33.884-.917c.048 1.165.285 1.402.604.605.289-.722.253-1.585-.079-1.917s-.568.258-.525 1.312m11 0c.048 1.165.285 1.402.604.605.289-.722.253-1.585-.079-1.917s-.568.258-.525 1.312m7 0c.048 1.165.285 1.402.604.605.289-.722.253-1.585-.079-1.917s-.568.258-.525 1.312m17 0c.048 1.165.285 1.402.604.605.289-.722.253-1.585-.079-1.917s-.568.258-.525 1.312m8 0c.048 1.165.285 1.402.604.605.289-.722.253-1.585-.079-1.917s-.568.258-.525 1.312m10 0c.048 1.165.285 1.402.604.605.289-.722.253-1.585-.079-1.917s-.568.258-.525 1.312m12 0c.048 1.165.285 1.402.604.605.289-.722.253-1.585-.079-1.917s-.568.258-.525 1.312"/></svg>