<?xml version="1.0" encoding="UTF-8"?>
<svg id="Bolivia" xmlns="http://www.w3.org/2000/svg" viewBox="0 0 480.66 540.5">
  <defs>
    <style>
      .cls-1 {
        fill: #89b8e4;
      }

      .cls-1, .cls-2, .cls-3, .cls-4, .cls-5, .cls-6, .cls-7, .cls-8, .cls-9 {
        stroke: gray;
        stroke-linecap: round;
        stroke-linejoin: round;
        stroke-width: .5px;
      }

      .cls-2 {
        fill: #f4ac02;
      }

      .cls-3 {
        fill: #fed166;
      }

      .cls-4 {
        fill: #f5ef97;
      }

      .cls-5 {
        fill: #cba4cd;
      }

      .cls-6 {
        fill: #7886c2;
      }

      .cls-7 {
        fill: #66b32e;
      }

      .cls-8 {
        fill: #8ccab2;
      }

      .cls-9 {
        fill: #bbd147;
      }
    
      .macro {
        cursor: pointer;
        transition: transform 0.2s, fill-opacity 0.2s;
      }

      .macro:hover {
        transform: scale(1.01);
        fill-opacity: 0.85;
      }

      .macro-altiplano {}
      .macro-valles {}
      .macro-llanos {}

    </style>
  </defs>
  <path id="La_Paz" data-macroregion="altiplano" data-name="La Paz" class="cls-5 macro macro-altiplano" d="m6.41,315.42v-.05s.07-2.93.07-2.93l-.12-1.45-.44-1.21-.57-.74-.78-.8-1.59-1.27-.62-.22-2.02-.27h-.08s.67-1.06.67-1.06l.61-2.27.43-.89.17-.05.68-.11.24-.08,2.13-1.94,1.22-.82,1.07-.42,1.13-.21,1.05-.4.84-.98.19-.65-.19-.26-.29-.13-.13-.24.12-.4.25-.27,1.69-1,.47-.55,1.04-2.27,3.99-4.25.54-.87.75-2.21.37-.58.63-.39,1.41-.14.73-.18,2.29-1.19.66-.49.65-.85.48-.62-1.05-1.48-.2-.68.1-1.27-.05-2.38.08-.83.35-.71,1.03-1.28,1.31-.67,4.43-1.76.88-1.39-.4-1.1-.91-.61-2.05-.83-1.6-1.76-.89-.54-1.11.37-1.28-.4-.43-.04-.43.15-.76.59-.44.19h-1.01l-.94-.32-.85-.53-.73-.63-1.37-1.72-.88-2.22-1.67-4.2-1.67-4.19-1.67-4.19-1.68-4.19-.48-1.2-.22-1.22.35-1.21,2.55-3.86.21-.79.1-.81.2-.8.51-.73.4-.22,1.08-.36.28-.18.02-.35-.45-1.21.23-.65.63-.83.76-.69,1.31-.45.53-1.56.76-.05.93.06.62-.5.09-.74-.93-.91-.97-1.39-.64-.62-2.34-1.75-.64-.66-2.26-3.46-.66-.62-.85-.79-.25-.7.17-.75.64-1.52.08-.31-.17-3.31.06-.69.36-.55.88-.54,2.19-.61.63-.36.54-1.17.25-5.18.51-.79.78-.08.89.19.86.03.23-.45-.11-1.86.12-.7.24-.18.67-.18.28-.14,1.55-1.79.76-.56,2.56-1.43.78-.73-.17-.81-.54-.81-.31-.72-.04-1.56.06-.78.22-.7.99-.71,1.32-.34,2.66-.34.76-.82-.17-1.41-.98-2.7-.25-1.39-.23-.62-.41-.58-2.11-1.39-.52-.74-.24-1.3v-1.47s-.16-1.37-.16-1.37l-.68-1.02-.51-1.54-.05-.55.14-.65.19-.47v-.46l-.44-.6-2.13-1.72-.81-1.16.55-.92.51-.05,1.2.22.45-.08.35-.44v-.47s-.07-.51-.07-.51l.09-.55.31-.46.83-.9.34-.52.35-.96.24-1-.15-.91.46-7.85-.56-3.16-.1-1.62.3-4.76-.07-.58-.48-3.95v-1.72s.21-.9.21-.9l1.24-.97.42-.97.48-.75.87.12.5-1.13.61-.83.8-.54,3.25-.88.3-.36.91-1.79-.39-.44-1.27-.35-.37-.38.05-.65.38-.58.54-.46,1.17-.63.56-.51.45-.59.33-.61.24-.8.23-.37.4-.17-.21-.36.45.07,1.28.06.38-.06.25-.17.47-.52.19-.11.77-2.17.45-.56.93-.19.68.32.58.46.65.23.81-.11.49-.32.73-1.19,1.83-4.57.86-1.22,4.66-2.45,1.01-1.11.31-1.33.29-2.91.62-1.11,1.21-.57,2.96-.4,1.06-.53.8.05.99-.19.94-.36.67-.47.57-.88.32-1.04-.02-.21.71.18,40.45,18.92-.31.72-.1.79.05,2.44.08.52.31.62-.03.64-.48.82-1.05,1.43.62,1.72.18.83-.08,1.02-2.19,9.23-1.9,4.61-.54.17-.66-.08-.79.15-.66.63-1.54,2.82-.32.25-.73.38-.3.26-.18.37-.17.8-.15.37-3.21,3.76-1.36,1.07-.57.66-1.7,2.6-.62,1.34.03,1.4.66,3.67.68,1.04v.78s-.35.68-.35.68l-1.64,2.09-.77,1.29-.47.53-.65.41-.5.5-.36.82-.46,1.63-.04.78.54,1.05-.11.8-.35.64-.37.51-.32.59-1.05,4.77.02.64.49,1.8.05.5.41,3.13-.15,2.42.39,1.32.07.69-.17.65-.5.56-1.26.57-.46.38-.15.74.1.76.2.8.57,1.47.1.14.26.24.1.14.06.24v.5s.01.25.01.25l.18.41.86.85.48.74.24.77-.04.8-.35.81-.27.33-.62.55-.28.31-.23.42-.1.3.21.34,1.04,2.5.76,1.07,1.91,1.73.35.65.19.88.03,1.67-.16,1.53-.2.8-.13.87.04.63.13.83.49,1.47.58.74.59.36.57.45.38.22.43.13.49.04.94-.12h.47s.47.08.47.08l.45.33.42.52.74,1.49.34.56.52.5.94,1.1,1.06,1.57,2.5,5.05.13.56v.49s-.29,1.7-.29,1.7l-.02.42.05.43.16.43.28.45.4.43.57.32.82.35.24.18.34.35.84,1.47,7.87,7.4,1.63,1.64-3.27,2.79-1.42,1.82-1.21,1.3.09.14.17.13.17.09.14.15.07.28-.07.63-.23.43-.31.4-.3.51-.12.47v.47s.15.96.15.96v1.03s-.37,2.99-.37,2.99l.04.41.13.3.71.91.6,1.04,1.16,1.26.42.69.09.89-.08.64.05.27,1.23.44.17.14.32.54.83,1.07.24.58-.18,5.06-.53,2.06.05,1.02.46,1.1,1.17,2.08.35,1.17-.04,3.09v.54s.31,1.89.31,1.89l.03.68-.12.68-.53.81-.92.72-1.04.56-.92.31-2.36.3-.95.46-.78,1.14-.75,1.4-.28.71-.08.83.11.8-.02.38-.16.44-.69.91-.2.33-.31.87-.11.84.19.74.61.56,1.82.72.43.68.59.63.5.76.27.52.24.63.58,2.97-.13,1.27.03.53.17.42.29.54.31.38.59,2.19-.77,1.55.16.42.24.45.37.36.23.38.11.56-.29.35-.47.34-5.06,2.72-.91-.86-.13-.18-.95-1.09-.66-.96-.52-1.12-.25-.43-.28-.38-.33-.35-.57-.47-.25-.13-.29-.11-.49-.1-.36-.03-.35.03-5.13,1.48-.84.33-4.65,2.73-4.8,3.45-.94.73-6.51,4.07-.75.57-.14.22-.05.27.05.58.1.35.13.28.38.61.23.56.04.2v.26s-.02.26-.02.26l-.12.42-.11.29-.21.42-.27.31-.84.55-.53.09-.49-.04-.23-.06-.22-.09-7.73-5.83-.87-.41-1.3-.46-3.13-1.57-1.18-.37-6.16-.27-4.71.36-1.3.35-2.47,1.12-.38.26-2.2,1.85-3.48,4.41-1.39,1.29-3.35,2.54-2,1.09-5.18,1.42-2.86,1.43-.4.12-.38-.65-.48.02-.62.25-.82.04-.66-.21-.64-.28-1.19-.73-.93-.23-.28-.11-.28-.26-.79-.93-.61.14-.49.37-.49-.02-.61-1.01-.35-1.5-.03-3.02-.26-1.47-.99-1.91-1.39-1.57-3.19-2.82-.84-1.27-.35-1.49-.16-3.22Z"/>
  <path id="Oruro" data-macroregion="altiplano" class="cls-1 macro macro-altiplano" d="m26.89,374.72l1.17-1.6.32-.77v-.91s-.11-.43-.11-.43l-2.18-4.62-.02-.03v-.03s0-.03,0-.03l.29-.55.08-.55-.09-.56-.26-.53-.93-1.66-.35-2.02.05-2.13.27-1.97.02-.94-.29-.85-1.42-2.43-.16-.67.1-2.24-.07-.37-.58-1.75-.04-.36v-.43s-.14-.96-.14-.96l-.41-.67-1.2-1.28-.56-1.92,1.16-1.2,1.44-1.15.29-1.77-.02-.04.4-.12,2.86-1.43,5.18-1.42,2-1.09,3.35-2.54,1.39-1.29,3.48-4.41,2.2-1.85.38-.26,2.47-1.12,1.3-.35,4.71-.36,6.16.27,1.18.37,3.13,1.57,1.3.46.87.41,7.73,5.83.22.09.23.06.49.04.53-.09.84-.55.27-.31.21-.42.11-.29.12-.42.03-.26v-.26s-.05-.2-.05-.2l-.23-.56-.38-.61-.13-.28-.1-.35-.05-.58.05-.27.14-.22.75-.57,6.51-4.07.94-.73,4.8-3.45,4.65-2.73.84-.33,5.13-1.48.35-.03.36.03.49.1.29.11.25.13.57.47.33.35.28.38.25.43.52,1.12.66.96.95,1.09.13.18.91.86,6.45,4.92.7.69,2.05,2.6,2.98,4.63,2.19,5.23-.32.81-.39.36-.44.31-.48.23-2.69.87-.29.66-.25,3.81.07.93.17.51.24.43.31.33.39.28,1.33.59.48.11.5-.02,1.03-.19h1.04s.41.08.41.08l.82.32.38.07h.85s.91.26.91.26l-.9,1.01-1.14.73-1.77.87-.99.65-.85.42-.41.38-.16.28-.02.25.08,1.36-.02.68-.07.51-.4,1.83-.02.47.03.52.04.17.02.06.49.75,1.38,3.01.31.49.24.27.44.36,3.3,2.6,1.15.72,3.5,1.25,2.5.25,2.02.81.58.47.46.48.21.43,1.76,5.5.09.22,1.51,2.88,1.94,2.63,2.92,3.38.71,1.33-.05.41-.17.37-.39.3-.46.21-1.16.22-4.81.39-8.29.6-.94.36-1.65.91-4.72,4.32-2.86,2.18-1.56.89-8.18,3.7-12.01,5.19-12.23,5.26-5.34,1.82-2.05-.05-3.63-.71-18-6-11.14-4.03-.17-.08,1.76-2.64h0s.86-1.22.86-1.22l.54-.55,1.58-.71.33-.27-.29-.8-.69-.83-.81-.77-4.21-3.05-1.4-.53-1.09-.7-1.38-2.4-.9-.99-3.71-3.25-1.26-.88-1.87-.64-.54-.35-.44-.59-.92-2.18-.73-1.31-.48-.55-.62-.4Z"/>
  <path id="Potosí" data-macroregion="altiplano" class="cls-6 macro macro-altiplano" d="m43.14,400.34l.17.08,11.14,4.03,18,6,3.63.71,2.05.05,5.34-1.82,12.23-5.26,12.01-5.19,8.18-3.7,1.56-.89,2.86-2.18,4.72-4.32,1.65-.91.94-.36,8.29-.6,4.81-.39,1.16-.22.46-.21.39-.3.17-.37.05-.41-.71-1.33-2.92-3.38-1.94-2.63-1.51-2.88-.09-.22-1.76-5.5-.21-.43-.46-.48-.58-.47-2.02-.81-2.5-.25-3.5-1.25-1.15-.72-3.3-2.6-.44-.36-.24-.27-.31-.49-1.38-3.01-.49-.75-.02-.06-.04-.17-.03-.52.02-.47.4-1.83.07-.51.02-.68-.08-1.36.02-.25.16-.28.41-.38.85-.42.99-.65,1.77-.87,1.14-.73.9-1.01-.91-.28h-.85s-.38-.06-.38-.06l-.82-.32-.41-.09h-1.04s-1.03.2-1.03.2l-.5.02-.48-.11-1.33-.59-.39-.28-.31-.33-.24-.43-.17-.51-.07-.93.25-3.81.29-.66,2.69-.87.48-.23.44-.31.39-.36.32-.81,2.67-.51.89-.08.38.05.32.08,1.53.17,2.36-.09,2,.33h.45l.36-.07.43-.24,2.27-1.86.86-.67,3.18-2.24.51-.17,1.05-.24,1.59-.09,1.35.11.46.08.4.12h.81s.21.8.21.8l.5,1.04.58.89.46.38.44.1.38.28.27.4.25,1.01.36.1,2.61-.65h.85s.7,1.08.7,1.08l2.37,1.31,2.44,2.12.3.71.7.57,1.39.84.94,1.15.47.73.44,1.19.58.6.71.5.65.35,1.41,1.14,1.7,2.96,1.21,1.26.23.09.59.11.26.09.19.14.35.42,1.36.74.38.11.15.15.13.36-1.29.3-.59-.07-.91-.42-2.99-.99-.31-.19-.08-.04-.1-.03-.19.03-.25.08-1.1.54-.23.06h-.23s-.22-.09-.22-.09l-.17-.16-.12-.21-.09-.23-.1-.19-.13-.15-.17-.12-.23-.09-.28-.06-1.16.04-.26-.04-.22-.11-.19-.14-.23-.09-.47-.06-.16-.1-.1-.15-.1-.31-.1-.14-.17-.07-.21.03-.21.08-.21.13-.14.15-.08.38.23,1.47v.37s.06.23.06.23l.13.27.36.44.28.24.27.17.86.4.4.29.13.31.04.44-.25,1.97.09,1.72.82,4.47-.03.19-.17.39-.31.37-.91.77-.17.18-.14.2-.11.23-.06.25.04.29.11.21.29.17.2.03.2-.03.2-.06,4.27-2.13.79-.29,1.72-.41h.23s.19.03.19.03l.24.07.22.1.19.15.15.2.09.25.08.4-.05.43-.15.48-.4.7-.28.35-.25.23-.61.38-1.43,1.24-.07.1-.09.24-.04.37.09.44.11.23.08.12.32.28.31.32.12.19.1.2.08.24.06.25.06.54.09.45.06.18-.04.21-.11.24-.5.44-.28.3-.99,1.63-.66,1.12-.09.21-.08.14-.04.17v.1s.01.14.01.14l.73,2.01.62,1.09,1.26.84.26.24.23.34.17.52.16,1.1.23.49.55.55,1.05.76.87,1.33.45.48,1.94,1.33.56.56.65.44,1.76.33.64.38.62.46,2.39,1.36.96.33.78-.25.28-.19.17.07.11.17.11.09h.88s3.06-.99,3.06-.99l1.18-.09,1.05.28.67.56.62.83.45.93.17.87.12-.02.26.26.26.34.14.24.03.38-.06.35-.2.69-.12.88.05.8.22.77.4.81,3.33,4.38.85,1.64.3.86-.36.55-1.32,1.86-3.07,3.25-7.43,4.17-.66.17-4.03.35-.86.25-1.2.18-.76.29-.15.07-.79.61-.66.66-.16.12-.19.09-.44.12-.2.15-.13.25v.89s.02.22.02.22l.2.73-.17.68-1.04,1.47-.26.34-.22.35-.19.4-.41,1.38-.03.4.03,1.49.11.87,2.76,11.05-3.01,7.16-.18.62-.47,2.4-.3.73-1.03,1.75-.26,5.27-1.68,5.81-.08.88.02.55.08.47.12.43.04.24-.42,4.38.04,1.05.05.23.67,1.58,5.55,6,3.24,2.42.02,1.35-.04.4-.12.52-.66,1.81-.53.93-.52.6-.16.13-.13.28-.1.39-.12,1.22-.11.37-.24.3-.36.38-.26.65-.35,1.93.39.22.15.1.2.17.18.2.2.32.23.31.43.38.27.3.64.97,1,1.94.47.7.32.27.14.15.41,1.29,1.05,5,.06.12h-.69s0,.02,0,.02l-10.5.13-2.09-.24-2.73-.4-.34.03-.19.16-.17.19-.29.14-5.48.63-1.21-.38-1.15-.81-5.04-5.96-.86-.48-3.62-.64-.21-.23-.47-2.05-1.22-1.31-1.71-.86-3.33-1.08-.69.23-1.87,6.94-.38,3.94-.17.62-.24.51-.09.05-.17-.1-.5.07-.34.21-.31.34-.24.41-.16.4-.95.74-5.23,1.52-4.58,1.25-.15.2-.11.32-.12.27-.2.05-.65-.22-.77-.1-.44-.14-.43-.04-.53.24-.91.79-.51.84-.28.99-.47,3.14-.28.96-.51.63-.1.35.24,1.22-.02.44-.45.31-4.42,1.38-1.05.55-.8.85-.38.58-.51.35-.61.14-.87-.08-.67.03.33,3.94-.09.92-.44.64-2.97,2.35-1.16,1.39-2.02,3.37-12.45,2.7-1.45.29-2.74.2-6.09-.36-1.26-.43-.3-.3-.86-1.34-.19.03-1.51-.31-.42-.63-.17-1.1v-3.28s1.29-6.31,1.29-6.31l-.02-.83-1.2-2.38-.34-2.11-.34-.91-1.51-2.79-.26-.85v-.84s.67-2.64.67-2.64l-.05-.82-.35-1.01-1.1-1.59-.14-.45.13-.4.5-.71.14-.38-.14-.92-.47-1.02-.69-.89-.79-.54-1.91-1.86-.94-.86-.37-.5-.16-.61-.45-6.93-.82-3.26-2.45-4.46-.31-1.45.18-10.23-.54-1.85-8.22-13.61-.62-.62-.86-.22-1.66.08-.56-.06-.84-.52-.93-.58-.66-1.74-.03-5.42.3-.98.59-.86,2.7-2.34.03-.76-1.15-.95-1.03-.42-1.85-1.2-4.02-1.93-.87-.66-.87-.91-.83-1.14-.58-1.28-.14-1.28.45-1.1.89-.7,2.23-.79-1.56-2.78-.45-1.39.05-1.63.2-1.19-.12-.42-1.29-.28-1.2-.76-.12-.8.67-.71,4.83-1.48,1.21-.12.57.09.42.13.35-.05.35-.42.19-.43.33-1.43.05-.81.8-1.94.12-.6-.05-.26-.16-.25-.18-.57-.04-1.23-.04-.29-.3-.56-.38-.28-1.21-.51-.68-.5-1.24-1.32-1.89-1.47-.28-.52.09-.76.51-.84,1.64-1.46.69-.76,2.13-3.21Z"/>
  <path id="Tarija" data-macroregion="valles" class="cls-4 macro macro-valles" d="m276.37,512.16l-.34-.12-.11-.3-.05-.38-.17-.38-.47-.5-1.68-1.21-1.86-.91-.56-.59-.29-.75v-1.34s-.27-.51-.27-.51l.11-.35v-.42s-.25-1.59-.25-1.59l-.12-.4-.56-.14-1.71-.32-5.82.31h-.02s-12.38-.07-12.38-.07l-12.38-.07-1.51.26-.63.35-1.83,1.63-.45-.21-1.62-1.44-.79-.36-3.67-.25-1.05.2-.57.24-.13.14-.02.25-.38.95-.14.82-.14.34-.3.31-.3.15-.27.08-.21.15-.34.69-.61,2.37-1.23,3.12-.31.47-.79.43-.29.31-2.92,7.64-.95,1.39-2.03,1.93-.57,1.02-1.7,6.37-.02,3.06-.35.82-.92,3.26.07.54-.73-.35-.15-1.98-.48-.59.3-1.01-.13-1.15-.52-.94-.86-.39-.43-.35-1.05-2.26-.39-.3-.35-.14-.26-.25-.1-.63.04-.48.19-.83.04-.42.15-.46.33-.38.29-.43.06-.63-2.18-2.17-.57-.78-.23-.97-.15-.25-.71-.46-.22-.31v-.43s.32-.82.32-.82l-.05-.46-.52-.47-.83-.58-.52-.74.39-.99.51-.61.27-.59-.02-.68-.36-.87-.33-.5-1.05-1.28-.37-.26-.79-.18-.88-.45-.75-.56-.84-.13-.33-.11-.31.06-.73.32-.36.07-1.55-.38-2.76-1.56-7.39-1.73-6.69.08h0s.69-.02.69-.02l-.06-.12-1.05-5-.41-1.29-.14-.15-.32-.27-.47-.7-1-1.94-.64-.97-.27-.3-.43-.38-.23-.31-.2-.32-.18-.2-.2-.17-.15-.1-.39-.22.35-1.93.26-.65.36-.38.24-.3.11-.37.12-1.22.1-.39.13-.28.16-.13.52-.6.53-.93.66-1.81.12-.52.04-.4-.02-1.35.16-2.42,1.09-8.43-.08-.86v-1.69l.06-.42.66-2.34.5-7.66.09-.26.14-.25.23-.31.23-.11h.22s.18.11.18.11l.34.25.2.1.68.22.23.03.24-.03.53-.21.24-.07h.22s.19.08.19.08l.31.27,1.22,1.52h.01s.03.03.03.03l.09.02h.19s.26-.06.26-.06h.27s.04.03.04.03l.23.29.13.12.16.03.21-.03.34-.14.25-.06.22.04.17.11.3.28.17.11.2.07h.23s.48-.03.48-.03l.25.03.2.08.17.13.11.17.07.21.05.22.08.21.17.12.45.15.2.09.17.12.14.15.12.16.09.16.11.16.15.14.18.11.59.29.17.12.14.15.13.16.16.11.2.03.48-.21.74-.22.64-.31.28-.25.16-.27.1-.49.07-.23.29-.59.06-.23v-.24s-.01-.5-.01-.5l.07-.54.25-.6.57-.89.33-.63.39-.57.29-.21.29-.08.22.05.19.07.53.29.22.08.23.05h.49s.22.02.22.02l.2.08.14.14.1.19.22.62.11.18.14.14.75.42.16.13.27.29.16.23.77.88.11.18.94,2.16.11.18.13.15.16.13.18.11.29.05.36-.02,1.21-.32.73-.09h.27s.5.1.5.1l.2.1.35.24,1.41,1.19,1.45.63.73.14,2.36-.26.51.07,1.05.33.34.03.27-.05.2-.12.19-.14.21-.21.15-.18.13-.19.09-.2.07-.23.05-.25.04-.83-.02-.25-.2-.61.03-.21.18-.36.05-.19.03-.22.07-.26.28-.37.15-.27.08-.25v-.21s-.23-2.51-.23-2.51l.03-1.03.05-.4.06-.21.3-.74.25.13.48.54.55.37.47-.07.59-.2h.85s.77.19.77.19l.33.29.13.76.35.24,1.13.02.23-.08.45-.09.28.1-.29.49-.09.4.28.44.77.73v.13s.83,0,.83,0l3.66.11,62.84.05h.02v.02s-.15,2.75-.15,2.75l-1.27,4.31-1.28,4.35-1.38,4.69-1.44,4.89-1.35,4.46-1.83,6.1-1.43,4.77-1.72,5.72-1.05,3.76-1.11,4-.9,2.11Z"/>
  <path id="Sucre" data-macroregion="valles" class="cls-3 macro macro-valles" d="m293.68,438.09l-.86,1.24-1.43,2.18-.33,1.11.04,3.8.04,3.68.05,4.02.07,6.1h-.02l-62.84-.05-3.66-.11h-.82s0-.14,0-.14l-.77-.73-.28-.44.09-.4.29-.49-.28-.1-.45.09-.23.08-1.13-.02-.35-.24-.13-.76-.33-.29-.77-.18h-.85s-.59.19-.59.19l-.47.07-.55-.37-.48-.54-.25-.13-.3.74-.06.21-.05.4-.03,1.03.24,2.51v.21s-.08.25-.08.25l-.15.27-.28.37-.07.26-.03.22-.05.19-.18.36-.03.21.2.61.02.25-.04.83-.05.25-.07.23-.09.2-.13.19-.15.18-.21.21-.19.14-.2.12-.27.05-.34-.03-1.05-.33-.51-.07-2.36.26-.73-.14-1.45-.63-1.41-1.19-.35-.24-.2-.1-.5-.09h-.27s-.73.08-.73.08l-1.21.32-.36.02-.29-.05-.18-.11-.16-.13-.13-.15-.11-.18-.94-2.16-.11-.18-.77-.88-.16-.23-.27-.29-.16-.13-.75-.42-.14-.14-.11-.18-.22-.62-.1-.19-.14-.14-.2-.08-.22-.02h-.49s-.23-.05-.23-.05l-.22-.08-.53-.29-.19-.07-.22-.05-.29.08-.29.21-.39.57-.33.63-.57.89-.25.6-.07.54.02.5v.24s-.07.23-.07.23l-.29.59-.07.23-.1.49-.16.27-.28.25-.64.31-.74.22-.48.21-.2-.03-.16-.11-.13-.16-.14-.15-.17-.12-.59-.29-.18-.11-.15-.14-.11-.16-.09-.16-.12-.16-.14-.15-.17-.12-.2-.09-.45-.15-.17-.12-.08-.21-.05-.22-.07-.21-.11-.17-.17-.13-.2-.08-.25-.03-.48.04h-.23s-.2-.08-.2-.08l-.17-.11-.3-.28-.17-.11-.22-.04-.25.06-.34.14-.21.03-.16-.03-.13-.12-.23-.29-.04-.02h-.27s-.26.05-.26.05h-.19s-.09-.02-.09-.02h-.03s-.01-.03-.01-.03l-1.22-1.52-.31-.27-.19-.08h-.22s-.24.07-.24.07l-.53.21-.24.03-.23-.03-.68-.22-.2-.1-.34-.25-.18-.1h-.22s-.23.11-.23.11l-.23.31-.14.25-.09.26-.5,7.66-.66,2.34-.06.42v1.69l.08.86-1.09,8.43-.16,2.42-3.24-2.42-5.55-6-.67-1.58-.05-.23-.04-1.05.42-4.38-.04-.24-.12-.43-.08-.47-.02-.55.08-.88,1.68-5.81.26-5.27,1.03-1.75.3-.73.47-2.4.18-.62,3.01-7.16-2.76-11.05-.11-.87-.03-1.49.03-.4.41-1.38.19-.4.22-.35.26-.34,1.04-1.47.17-.68-.2-.73-.03-.22v-.89s.14-.25.14-.25l.2-.15.44-.12.19-.09.16-.12.66-.66.79-.61.15-.07.76-.29,1.2-.18.86-.25,4.03-.35.66-.17,7.43-4.17,3.07-3.25,1.32-1.86.36-.55-.3-.86-.85-1.64-3.33-4.38-.4-.81-.22-.77-.05-.8.12-.88.2-.69.06-.35-.03-.38-.14-.24-.26-.34-.26-.26-.12.02-.17-.87-.45-.93-.62-.83-.67-.56-1.05-.28-1.18.09-3.06,1h-.88s-.11-.1-.11-.1l-.11-.17-.17-.07-.28.19-.78.25-.96-.33-2.39-1.36-.62-.46-.64-.38-1.76-.33-.65-.44-.56-.56-1.94-1.33-.45-.48-.87-1.33-1.05-.76-.55-.55-.23-.49-.16-1.1-.17-.52-.23-.34-.26-.24-1.26-.84-.62-1.09-.73-2.01-.02-.14v-.1s.05-.17.05-.17l.08-.14.09-.21.66-1.12.99-1.63.28-.3.5-.44.11-.24.04-.21-.06-.18-.09-.45-.06-.54-.06-.25-.08-.24-.1-.2-.12-.19-.31-.32-.32-.28-.08-.12-.11-.23-.09-.44.04-.37.09-.24.07-.1,1.43-1.24.61-.38.25-.23.28-.35.4-.7.15-.48.05-.43-.08-.4-.09-.25-.15-.2-.19-.15-.22-.1-.24-.07-.19-.04h-.23s-1.72.42-1.72.42l-.79.29-4.27,2.13-.2.06-.2.03-.2-.03-.29-.17-.11-.21-.04-.29.06-.25.11-.23.14-.2.17-.18.91-.77.31-.37.17-.39.03-.19-.82-4.47-.09-1.72.25-1.97-.04-.44-.13-.31-.4-.29-.86-.4-.27-.17-.28-.24-.36-.44-.13-.27-.06-.23v-.37s-.23-1.47-.23-1.47l.08-.38.14-.15.21-.13.21-.08.21-.03.17.07.1.14.1.31.1.15.16.1.47.06.23.09.19.14.22.11.26.04,1.16-.04.28.06.23.09.17.12.13.15.1.19.09.23.12.21.17.16.22.09h.23s.23-.06.23-.06l1.1-.54.25-.08.19-.03.1.03.08.04.31.19,2.99.99.91.42.59.07,1.29-.3.09.42.03.35.15.44h.36l.45-.11.42.11.24,1.41.25.39.38.47.44.39.44.16.45.42.12.98v1.12s.11.84.11.84l.52.61.7.11,1.51-.3.7.09.7.32,1.79,1.21.54.21.53-.04.47-.44.24-.55.28-1.19.28-.58.38-.48.9-.84,1.47-1.01,2.14-1.01,2.81-.82.89-.09.74.2.31.28.44.71.25.32.8.31,1.9-.02.72.5.47.9.34.38.49.15.06.2.56,1.21.34.38.76.6.34.35.62.83.36.23.54.08h2s.64-.1.64-.1l.47-.19,2.67-2.15.89-.33.84.29.21.28.37,1.01.22.32.38.37.42.41.38.5.14.51-.02.54-.09.61-.02.67.14.54.56,1.06.21.55.29,1.11.29.5.81.67.84.43.76.52.57.94.11.54.06.58.11.55.28.43.48.27.58.14,1.15.07.61.18.36.39.31.47.46.43.29.1.27.03.26.1.24.31,1.63,5.71.09.5.18.45.37.33.6.19.72.05.72-.06.6-.15.5-.27.38-.37.27-.47.19-.56.37-3.02.45-.86.49-.37h.46s1.05.33,1.05.33l.82.03,2.47-.28.36.67-.94,6.89-.1,2.5,1.67,28.73.14.43.5,1.12.08.16,1.66,16.83.51,1.78.89.1h2.46s1.79.42,1.79.42h.42s.33-.09.33-.09l.2-.12.24-.25.68-1,.27-.3.32-.24.41-.11.77-.12.32-.12.22-.12.51-.43.25-.3.47-.72.27-.3.34-.17.51.39.53.84,1.2,2.89.34.53.31.16.37.1,42.29-.16h.03Z"/>
  <path id="Cochabamba" data-macroregion="valles" class="cls-2 macro macro-valles" d="m105.59,317.25l5.06-2.72.47-.34.29-.35-.11-.56-.23-.38-.37-.36-.24-.45-.16-.42.77-1.55-.59-2.19-.31-.38-.29-.54-.17-.42-.03-.53.13-1.27-.58-2.97-.24-.63-.27-.52-.5-.76-.59-.63-.43-.68-1.82-.72-.61-.56-.19-.74.11-.84.31-.87.2-.33.69-.91.16-.44.02-.38-.11-.8.08-.83.28-.71.75-1.4.78-1.14.95-.46,2.36-.3.92-.31,1.04-.56.92-.72.53-.81.12-.68-.03-.68-.29-1.89v-.54s.03-3.09.03-3.09l-.35-1.17-1.17-2.08-.46-1.1-.05-1.02.53-2.06.18-5.06-.24-.58-.83-1.07-.32-.54-.17-.14-1.23-.44-.05-.27.08-.64-.09-.89-.42-.69-1.16-1.26-.6-1.04-.71-.91-.13-.3-.04-.41.37-2.99v-1.03s-.15-.96-.15-.96v-.47s.11-.47.11-.47l.3-.51.31-.4.23-.43.07-.63-.07-.28-.14-.15-.17-.09-.17-.13-.09-.14,1.21-1.3,1.42-1.82,3.27-2.79,11.05,11.08.41.77.59,1.76.45,1.21.22.42,2.27,3,6.44,6.89.85.7,3.86,2.56,1.97.94,3.07,1.02,4.15.87,1.95.09,1.27-.12,13.73-3.95,3.78-1.82.54-.71.59-1.12,2.14-6.6v-1.26s.12-.58.12-.58l1.23-2.64,1.89-3.25,1.18-.81,15-1.78,3.88-.84.54.28.51.03-.27.9-.46.09h-1.1s.9.82.9.82l.23.46-.03.66-.56-.26-.54-.18-.53.04-.52.4.64.53.57.65.44.75.26.85.02.51-.11.29-.14.21-.07.26v1.42l.17.84.75,1.03.17.62-.17.64-.31.69-.14.76.34.85-.33.82.02.72.1.71-.08.8-.87,1.14-.07.47.94.06-.7,1.17-.1.38.08.33.38.51.1.4-.08.57-1.21,2.86-.07.09-.03.11-.21,1.13-.35.38-.9.62-.38.42-.34.59-.26.65-.1.66.16.61.3.3.35.13.29.16.12.39-.11.3-1.42,2.36-.21.91-.47.77-.02.5.18.4.59.71.23.39.09.37.08.78.85,3.26.57.99,3.71,3.99.94.51.86.29.4.19.39.29,2.48,2.65.6.45,2.31,1.37,1.05.33.36.19,1.3,1.03,3.37,3.84,1.8,1.46.24.28.18.31.36,1.06.32.63.16.78-.19.76-.3.77-.63.05-.72.1-.45-.14h-.35s-.85.22-.85.22l-.38.03-.77-.09-.37.02-.45.18-1.48.99-.31.29-.16.49-.02.4.05.95-.09.41-.14.39-6.24,9.25-.82,1-3.25,3.25-.87.73-.56.67-.26,1.13.18.8.24.42,1.78,1.87.53.8,1.3,2.5.74,2.02.56.62.33.3.52.34.26.31.33.47.54.99.81,1.06.62,1.08.43,1.64.59,1.09.52.37.2.19.12.26v.45s-.06.3-.06.3l-.09.27-.03.22.08.2.46.42.12.26-.05.62.02.31.09.36.29.49.21.27.2.16.16.07.71.23.43.24.56.45.66.67.38.28.89.45.18.13.15.14.12.15v.02s.06.18.06.18l.05.3-.09,1.64.03.42.05.31.26.64v.25s-.16.31-.16.31l-1.01,1.17-.69,1.25-.38-.37-.22-.32-.37-1.01-.21-.28-.84-.29-.89.33-2.67,2.15-.47.19-.64.1h-2s-.54-.08-.54-.08l-.36-.23-.62-.83-.34-.35-.76-.6-.34-.38-.56-1.21-.06-.2-.49-.15-.34-.38-.47-.9-.72-.5-1.9.02-.8-.31-.25-.32-.44-.71-.31-.28-.74-.2-.89.09-2.81.82-2.14,1.01-1.47,1.01-.9.84-.38.48-.28.58-.28,1.19-.24.55-.47.44-.53.04-.54-.21-1.79-1.21-.7-.32-.7-.09-1.51.3-.7-.11-.52-.61-.11-.84v-1.12s-.12-.98-.12-.98l-.45-.42-.44-.16-.44-.39-.38-.47-.25-.39-.24-1.41-.42-.11-.45.11h-.36l-.15-.44-.03-.35-.09-.42-.13-.36-.15-.15-.38-.11-1.36-.74-.35-.42-.19-.14-.26-.09-.59-.11-.23-.09-1.21-1.26-1.7-2.96-1.41-1.14-.65-.35-.71-.5-.58-.6-.44-1.19-.47-.73-.94-1.15-1.39-.84-.7-.57-.3-.71-2.44-2.12-2.37-1.31-.7-1.06h-.85s-2.61.64-2.61.64l-.36-.1-.25-1.01-.27-.4-.38-.28-.44-.1-.46-.38-.58-.89-.5-1.04-.21-.8h-.81s-.4-.11-.4-.11l-.46-.08-1.35-.11-1.59.09-1.05.24-.51.17-3.18,2.24-.86.67-2.27,1.86-.43.24-.36.07h-.45l-2-.33-2.36.09-1.53-.17-.32-.08-.38-.05-.89.08-2.67.51-2.19-5.23-2.98-4.63-2.05-2.6-.7-.69-6.45-4.92Z"/>
  <path id="Santa_Cruz" data-macroregion="llanos" data-name="Santa Cruz" class="cls-8 macro macro-llanos" d="m453.14,425.32l-.03-1.09.58-2.2.06-.87-.05-1.76.1-.93-.13-1.3-.67-2.38-.08-1.33.12-1.38-.13-.59-.43-.48-1.54-.96-3.67-2.27-3.67-2.28-3.67-2.27-3.67-2.27-3.67-2.27-3.67-2.27-3.67-2.27-3.67-2.27-1.98-1.23-1.12-.8-1.18-.84-.78-.2-3.2.04-7.41.1-7.41.09-7.41.1-7.42.09-3.23.04-5.93,1.28-13.32,2.88-13.32,2.88-13.32,2.89-13.32,2.88-.84.13-1.86.28-1.86.28-.85.13-3.5.53-.63.26-.32.49-.74,2.04-1.11,3.05-1.11,3.06-1.11,3.06-1.11,3.06-.51,1.08-.51,1.08-.25.52-.26.55-.51,1.08-.66.99-.65.99-.65,1-.65,1-1.76,2.54-1.76,2.53-1.76,2.54-1.76,2.54-.82,1.19h-.03s-42.29.16-42.29.16l-.37-.1-.31-.16-.34-.53-1.2-2.89-.53-.84-.51-.39-.34.17-.27.3-.47.72-.25.3-.51.43-.22.12-.32.12-.77.12-.41.11-.32.24-.27.3-.68,1-.24.25-.2.12-.33.1h-.42s-1.79-.41-1.79-.41h-2.46s-.89-.11-.89-.11l-.51-1.78-1.66-16.83-.08-.16-.5-1.12-.14-.43-1.67-28.73.1-2.5.94-6.89-.36-.67-2.47.28-.82-.03-1.05-.34h-.46s-.49.37-.49.37l-.45.86-.37,3.02-.19.56-.27.47-.38.37-.5.27-.6.15-.72.06-.72-.05-.6-.19-.37-.33-.18-.45-.09-.5-1.63-5.71-.24-.31-.26-.1-.27-.03-.29-.1-.46-.43-.31-.47-.36-.39-.61-.18-1.15-.07-.58-.14-.48-.27-.28-.43-.11-.55-.06-.58-.11-.54-.57-.94-.76-.52-.84-.43-.81-.67-.29-.5-.29-1.11-.21-.55-.56-1.06-.14-.54.02-.67.09-.61.02-.54-.14-.51-.38-.5-.42-.41.69-1.25,1.01-1.17.15-.31v-.25s-.25-.64-.25-.64l-.05-.31-.03-.42.09-1.64-.05-.3-.05-.18v-.02s-.13-.15-.13-.15l-.15-.14-.18-.13-.89-.45-.38-.28-.66-.67-.56-.45-.43-.24-.71-.23-.16-.07-.2-.16-.21-.27-.29-.49-.09-.36-.02-.31.05-.62-.12-.26-.46-.42-.08-.2.03-.22.09-.27.07-.3v-.45s-.13-.26-.13-.26l-.2-.19-.52-.37-.59-1.09-.43-1.64-.62-1.08-.81-1.06-.54-.99-.33-.47-.26-.31-.52-.34-.33-.3-.56-.62-.74-2.02-1.3-2.5-.53-.8-1.78-1.87-.24-.42-.18-.8.26-1.13.56-.67.87-.73,3.25-3.25.82-1,6.24-9.25.14-.39.09-.41-.05-.95.02-.4.16-.49.31-.29,1.48-.99.45-.18.37-.02.77.09.38-.03.85-.21h.35s.45.13.45.13l.72-.1.63-.05.3-.77.19-.76-.16-.78-.32-.63-.36-1.06-.18-.31-.24-.28-1.8-1.46-3.37-3.84-1.3-1.03-.36-.19-1.05-.33-2.31-1.37-.6-.45-2.48-2.65-.39-.29-.4-.19-.86-.29-.94-.51-3.71-3.99-.57-.99-.85-3.26-.08-.78-.09-.37-.23-.39-.59-.71-.18-.4.02-.5.47-.77.21-.91,1.42-2.36.11-.3-.12-.39-.29-.16-.35-.13-.3-.3-.16-.61.1-.66.26-.65.34-.59.38-.42.9-.62.35-.38.21-1.13.03-.11.07-.09,1.21-2.86.08-.57-.1-.4-.38-.51-.08-.33.1-.38.7-1.17-.94-.06.07-.47.87-1.14.08-.8-.1-.71-.02-.72.33-.82-.34-.85.14-.76.31-.69.17-.64-.17-.62-.75-1.03-.17-.84v-1.42l.07-.26.14-.21.11-.29-.02-.51-.26-.85-.44-.75-.57-.65-.64-.53.52-.4.53-.04.54.18.56.26.03-.66-.23-.46-.9-.82h1.1s.46-.09.46-.09l.27-.9,51.82,2.73.8-.04.13-.1-.38-.21-.42-.17-1.4-.34-.45-.2-.39-.27-1.03-1.15-.36-.53-.23-.8-.08-.61-.04-1-.08-.41-.21-.39-.83-1.06-.49-.99-.4-.54-.34-.36-.28-.16-1.28-.58-.43-.26-1.18-1.01-.41-.2-.46-.03-.44-.11-.45-.29-1.82-1.92-.28-.53-.2-1.98-.23-.55-.49-.63-.51-.33-.98-.37-.4-.26-.36-.39-4.14-6.41-1.46-4.05-1.26-1.98-.26-.64-.43-1.94.19-.98.23-.59.16-.77.03-1.12-.22-2.1-.03-4.69-.9-3.84,1.86-.86,13.59-3.94,21.94-12.64,34.8-20.02,21.06-12.14.02-.02.2.03,1.07,1.01.4.22,1.86.41,1.76-.18,1.7-.63,2.67-1.38.6.05.6.25,1.41.25.83.52.45.17h.42l.9-.28,2.6.1.39-.23.23-.81.58-.38,1.68-.25.15-.16.47-.29.51-.1.23.4v1.63l.76.81,1.74.31,1.91.13,1.28.27.73.7.3.2,2.7,1.16,3.01,2.36,2.87,2.25,1.36.73.91.19.25.12.15.18.21.48.17.18.36.17,2.97.72.71.41.29.75.08,1.08.23,1.11.33,1.04.4.87.32.34.86.72.08.24-.19.41.24.25.38.17.24.16.1.34-.03.25-.34.77-.51,1.89-.39.87-.7.61-.95.27-.27.2-.21.55-.16.92-.05.92.13.54.52.9.02,1.03-.14,1.1.05,1.1.39.74,2.14,1.78.34.66.58,2.54,1.29,2.87.21,1.68-1.21.41.65,1.32,1.92,1.32.49.89.11,2.45.16,3.31.16,3.32.16,3.32.16,3.32.12,2.62-.2.48-4.5.05-7.59.1,2.08,1.82,2.73,3.26,4.25,5.08,3.61,4.32.55.9.33.99.52,6.04.7,8.19.52,6.04.27,4.37.28,4.61.75,1.74,1.21.34,2.73.1,7.49.27,7.5.27,7.5.27,7.49.27,7.49.27,7.5.27,7.49.27,7.5.27,2.84.1.88-.11.81-.41.29-.39.55-1.01.29-.2,1.7.04.4.36.2,3.97-.17.56-.92.77-.05.71.82,1.49-.53,1.48-3.93,4.47-.66,1.24-.3,1.39.14,1.77.8,3.08.13,1.59-.09.29-.35.73-.1.38v.48s.4,2.03.4,2.03l.68,1.24.26.74.22,2.86.2.63.42.72.19.9.06,3.66.22,1.55.71,1.22,1.47.81,1.24.16.39.12.39.24.7.59.39.25.33.1.64.11.33.19.45.6.64,1.36.62.46.55.14.45.06.43.12.51.33,1.08,1.19.43.32,1.39.6.47.26,1.71,1.41,1.13.49,1.49.37,1.49.1,1.13-.33.9-.15.68.1.88.36.54.56.39.92.1,1.02-.05.97.08.67-.02,1.58.08.76.31.74.41.54.5.49.57.39.63.26-.34,1.31.14.45.71.88.57,1-.08.74-1.23.12,3.67,6.37,2.02,5.01,1.35,2.51,1.57.9h.81l.64.1.35.4-.04.9-2.71.04-.71.17-.51.48-.64,2.04-1.85,5.88-1.85,5.88-1.85,5.89-1.85,5.89-.44,1.41,1.58.13.41.35.17.82.23,2.45.23,1.8-2.21.17-.67.44-.91,1.9-1.22,2.56-2.7,5.64-2.69,5.64-1.23,2.56h0s0,0,0,0l-.48,1.03-1.06,2.26-1.06,2.27-.48,1.03-1.37,2.93.3,1.17,2.98,2.72,3.17,2.9,3.96,3.62-.39.53-.45.68-.57.62-.88.42-.99-.25-.63-.08-.28.2-.1.36-.27.32-.39.23-.45.09-.99.4-1.23,1.78-1.03.4-.26.15-.47.72-.21.25-.5.27-1.67.61Z"/>
  <path id="Beni" data-macroregion="llanos" class="cls-7 macro macro-llanos" d="m168.37,28.53h0s.07.32.07.32l.07.13.16.13-.93,1.69-.57.55-.97.2v.27l.47.7.09.26-.04.19-.19.37-.04.24.03.34.09.41.13.35.15.15.11.43-.25,1.97v.6s.67.74.67.74l.7.44.55.56.22,1.14-.05.7-.3,1.52-.59,1.81.2.52,1.55.41.71.49.59.62.32.59.24,3.41.1.22.22.22.19.3.02.49-.15.35-.26.23-.32.21-.34.29-.61.93-.03.71.22.68.15.83-.31.72-1.52,1.19-.59.68-.13.98.51.62.66.47.33.54-.24.61-.49.32-.39.44.05.97.5.73.81.59.75.42.33.26-.14.51-.69.81-.24.47-.04.4.07.33,1.32,3.42,1.07,1.13,1.37-.38.96.52.41.36.26.51v.39l-.3.72v.52s.17.54.17.54l.19.12h.28s.47.19.47.19l.85.57.26.36-.92.31-.1.37.16.99-.08.39-.35.6-.08.38.02,1.46.22.55.54.59.71.52.51.13.31-.37.22-1.94.16-.5.24-.32.57-.16.12.38-.12.9.57.54.71.29.61.38.36,1.3.51.88.19.44.04.39-.07.81.03.39.19.85.22.36.4.19h.13s.39.19.39.19l.25.42.06.49-.17.39-.54.77-.07.73.27.63.47.48.55.31.62.16,1.67.08.81.17.83.29.84.14.88-.32.48.22.72.14.66.27.29.6.19.81.47.75,1.25,1.33-.29.55.18.44.44.21.48-.13.1-.32.13-1.06.15-.23.65-.07.14.22.19.67v.33l-.28.49-.02.27.12.21.34.34.07.14.41.4.96.57,1.86.84.49.06h1.03s.25.07.25.07l.64.53.81.42.04-.12v-.09s.06-.05.06-.05l.57.08.19.06.64.55.16.31.04.46-.05.89-.2.86-.71,1.61.1.68.24.16.87.31.36.2.33.38.46.85.29.42.53.55.61.49.75.34.93.13,1.6-.29.59.15.4,1.26.37.09.38-.08.19-.08.28-.18.44-.46.36-.16.84-.07.7.2.57.37,1.1,1.16.41.14.39-.38.59-.85.61.7,2.36.08.85,1.15.73-.1,1.25-.46.52.17.37.35.43.29h.7s.48-.39.48-.39l.26-.36.22-.39,1.33-1.64v-.22s.69-.09.69-.09l1.2-.39.53-.09,5.65.82.11.12,2.14,1.11,1.64,1.35.65.32.86.13.5.02.45.07.41.17.38.29.29.44.07.4.02.38.15.39.33.28.35.11.28.17.12.45.15.27,1.5,1.11.87.22.46.19,1.14.89.49.2,2.78-.02.45-.11.15-.3.37-.34.82-.59.18-.04.46.07.19-.02.18-.17.17-.45.18-.2,1.09-.47.11-.07.46.09.78.37,1.19.3.4.54.27,1.43.17.26.26.21.14.22-.3.47-.04.23.04.23.13.18.87.76.43.48.19.41.12.88.31.77.44.59.5.36.43.15.37.04.34-.09.33-.23.36-.14.2.27.13.38,2.07,2.68.11.26.2.19.44.07.4.02.29.09.19.2.06.35.19.65.5.56.69.47.76.39.07-.8.42-.22h.65s.76-.1.76-.1l.51-.32.4-.32.49-.07.75.46.38.33.26.32.15.37.09.95.14.19,3.43,1.48,2.44-.07.81.14.54.38,1.08,1.28.09.19.05.4.13.08.54-.03.14.03.67.42.31.11,1.84.21.53-.06.44-.39.8.32.66-.15.57-.31,1.48-.38.4-.04.42.1,1.06.73.06-.92.4.12.89,1.05.42.16.34-.09.23.06.09.59v2.69s.12.69.12.69l.4.55.85.61,1.74,1.91.55.28.04.17.61.95.22.15.88.4.67.46,1.91,1.87.41.29.77.4.3.28.15.32.81,2.69.46.4.88.15.77-.16.79-.28.78-.12.76.31.76-.46.9-.35.98-.22,2.79-.26.16.03-.02.02-21.06,12.14-34.8,20.02-21.94,12.64-13.59,3.94-1.86.86.9,3.84.03,4.69.22,2.1-.03,1.12-.16.77-.23.59-.19.98.43,1.94.26.64,1.26,1.98,1.46,4.05,4.14,6.41.36.39.4.26.98.37.51.33.49.63.23.55.2,1.98.28.53,1.82,1.92.45.29.44.11.46.03.41.2,1.18,1.01.43.26,1.28.58.28.16.34.36.4.54.49.99.83,1.06.21.39.08.41.04,1,.08.61.23.8.36.53,1.03,1.15.39.27.45.2,1.4.34.42.17.38.21-.13.1-.8.04-51.82-2.73-.51-.03-.54-.28-3.88.84-15,1.78-1.18.81-1.89,3.25-1.23,2.64-.14.58v1.26s-2.13,6.6-2.13,6.6l-.59,1.12-.54.71-3.78,1.82-13.73,3.95-1.27.12-1.95-.09-4.15-.87-3.07-1.02-1.97-.94-3.86-2.56-.85-.7-6.44-6.89-2.27-3-.22-.42-.45-1.21-.59-1.76-.41-.77-11.05-11.08-1.63-1.64-7.87-7.4-.84-1.47-.34-.35-.24-.18-.82-.35-.57-.32-.4-.43-.28-.45-.16-.43-.05-.43.02-.42.29-1.7v-.49s-.13-.56-.13-.56l-2.5-5.05-1.06-1.57-.94-1.1-.52-.5-.34-.56-.74-1.49-.42-.52-.45-.33-.47-.09h-.47s-.94.13-.94.13l-.49-.04-.43-.13-.38-.22-.57-.45-.59-.36-.58-.74-.49-1.47-.13-.83-.04-.63.13-.87.2-.8.16-1.53-.03-1.67-.19-.88-.35-.65-1.91-1.73-.76-1.07-1.04-2.5-.21-.34.1-.3.23-.42.28-.31.62-.55.27-.33.35-.81.04-.8-.24-.77-.48-.74-.86-.85-.18-.41-.03-.25v-.5s-.05-.24-.05-.24l-.1-.14-.26-.24-.1-.14-.57-1.47-.2-.8-.1-.76.15-.74.46-.38,1.26-.57.5-.56.17-.65-.07-.69-.39-1.32.15-2.42-.41-3.13-.05-.5-.49-1.8-.02-.64,1.05-4.77.32-.59.37-.51.35-.64.11-.8-.54-1.05.04-.78.46-1.63.36-.82.5-.5.65-.41.47-.53.77-1.29,1.64-2.09.33-.68v-.78s-.67-1.04-.67-1.04l-.66-3.67-.03-1.4.62-1.34,1.7-2.6.57-.66,1.36-1.07,3.21-3.76.15-.37.17-.8.18-.37.3-.26.73-.38.32-.25,1.54-2.82.66-.63.79-.15.66.08.54-.17,1.9-4.61,2.19-9.23.08-1.02-.18-.83-.62-1.72,1.05-1.43.48-.82.03-.64-.31-.62-.08-.52-.05-2.44.1-.79.31-.72.58-.86.31-.77-.14-.67-.29-.67-.12-.78.29-.88.51-.86.38-.88-.09-.96-.28-1.02.06-.86.6-1.84.18-1.65-.21-2.01-.56-1.95-.85-1.49-.57-.68-.24-.21-.14.03-.22.13-.26.09-.26-.09-.35-.67-.17-.98.16-.81.65-.15.73.08.71-.22.64-.42.51-.53.45-.9-.19-.55-.49-.46-.44-.63v-.76s.53-.33.53-.33l.77-.04.69.12.75-.05.52-.5.46-.66.55-.52.67-.18h1.35s.65-.26.65-.26l.54-.77.06-.92-.28-1.96.23-.75.95-1.09.12-.75-.11-1.01.06-.99.4-.77.9-.37,3.59-.22,2.67.31,1.01-.35,2.15-1.31,2.71-.29,1.22-.3.2-.82.11-.83,2.14-.51.45-.75-.27-.56-.42-.37-.28-.49.14-.93.34-.65,1.44-1.78.29-.74-.03-.68-.33-1.45.11-.93.5-.14.68.2.65.06.94-.81.2-1.31.03-1.43.42-1.19.36-.54.61.41.62-.34.48-.75.46-1.61.51-.88.32-.83-.31-.64-.4-.08-.82.33-.41.02-.28-.17-.23-.28v-.26s1.26-.39,1.26-.39l1.62-1.29.9-.36,1.5.26,1.71.55,1.38.08.51-1.14-.19-.73-.45-.71-.64-.54-.74-.22-.36-.34.26-.74.55-.74.49-.34.44.23.53.54.45.59.19.41.47.19,1.06-.23,1.71-.63.91-.69.38-.67.06-.78-.03-1-.19-.86-.27-.81.1-.63.92-.3.82.16.85.32.86.12.85-.44.79-.72.76-.55,3.42-1.66.29-.34.26-.79.61-.88.71-.75.56-.43.64-.23,2.07-.34h.03Z"/>
  <path id="Pando" data-macroregion="llanos" class="cls-9 macro macro-llanos" d="m168.37,28.53h-.03s-2.07.35-2.07.35l-.64.23-.56.43-.71.75-.61.88-.26.79-.29.34-3.42,1.66-.76.55-.79.72-.85.44-.86-.12-.85-.32-.82-.16-.92.3-.1.63.27.81.19.86.03,1-.06.78-.38.67-.91.69-1.71.63-1.06.23-.47-.19-.19-.41-.45-.59-.53-.54-.44-.23-.49.34-.55.74-.26.74.36.34.74.22.64.54.45.71.19.73-.51,1.14-1.38-.08-1.71-.55-1.5-.26-.9.36-1.62,1.29-1.27.39v.26s.23.28.23.28l.28.17.41-.02.82-.33.4.08.31.64-.32.83-.51.88-.46,1.61-.48.75-.62.34-.61-.41-.36.54-.42,1.19-.03,1.43-.2,1.31-.94.81-.65-.06-.68-.2-.5.14-.11.93.33,1.45.03.68-.29.74-1.44,1.78-.34.65-.14.93.28.49.42.37.27.56-.45.75-2.14.51-.11.83-.2.82-1.22.3-2.71.29-2.15,1.31-1.01.35-2.67-.31-3.59.22-.9.37-.4.77-.06.99.11,1.01-.12.75-.95,1.09-.23.75.28,1.96-.06.92-.54.77-.65.27h-1.35s-.67.17-.67.17l-.55.52-.46.66-.52.5-.75.05-.69-.12-.77.04-.53.33v.76s.44.63.44.63l.49.46.19.55-.45.9-.51.53-.64.42-.71.22-.73-.08-.65.15-.16.81.17.98.35.67.26.09.26-.09.22-.13.14-.03.24.21.57.68.85,1.49.56,1.95.21,2.01-.18,1.65-.6,1.84-.06.86.28,1.02.09.96-.38.88-.51.86-.29.88.12.78.29.67.14.67-.31.77-.58.86-40.45-18.92-.71-.18.02.21-.32,1.04-.57.88-.67.47-.94.36-.99.19-.8-.05-1.06.53-2.96.4-1.21.57-.62,1.11-.29,2.91-.31,1.33-1.01,1.11-4.66,2.45-.86,1.22-1.83,4.57-.73,1.19-.49.32-.81.11-.65-.23-.58-.46-.68-.32-.93.19-.45.56-.77,2.17-.19.11-.47.52-.25.17-.38.06-1.28-.06-.45-.07-.97-1.73-4.11-7.25-4.11-7.24-4.11-7.24-4.1-7.23-4.11-7.23-4.11-7.23-4.1-7.22-4.11-7.21-.14-.24-.14-.25-.14-.25-.14-.25-.14-.25-.14-.24-.14-.24-.14-.25,2.94.12,1.55-.16,2.65-.65,1.29.2,1.32.37,1.42.22,2.23-.08,3.08.37,1.46.34,1.36-.14.61.11,2.92,1.26.18.03h.36l.17-.03.93-.05,1.86.51.95.12.99-.23,1.07-.4,1.06-.23,1.18.35.67.34-.64.92-.46.96-.22,1.03.16,1.63.12.37.32.21.69.02,5.61-1.14,1.09-.55,2.04-1.48,1.68-.56.66-.1h.67l.68.12.56-.16,1.25-1.17.71-.37,1.85-.18.68-.28.81-.58.75-.75.66-.85.54-.87,1.03-2.35.55-.76,2.21-2.36,1.39-2.61.56-.65.92-.64,1.21-.59.65-.21.67-.08,1.12.18,4.69-.22.59.09.57.16.75.44,1.55,1.22.75.3,1.34-.35.65-1.15.36-1.44.45-1.19.43-.44,1.19-.99.5-.6.77-1.22.44-.53.6-.54.77-.23,1.41-.69,1.62-.55.79-.5.69-.65.55-.74.17-.45v-.32s.12-.3.12-.3l.43-.35.36-.11,1.74-.03.45-.07.42-.15.3-.25.06-.38-.23-.87.06-.35.56-.29.9-.15,1.63-.06.71.11,1.55.41h.67s.49-.29.49-.29l.29-.44.23-.45.29-.32.39-.14.83-.04.42-.08,1.8-1.02,6.36-6.51,5.2-3.99.75-.39,3.21-1.24.39-.25.21-.32.09-.44.14-.41.25-.32.42-.14,4.64-.81,2.4.19.79-.1.76-.27,1.64-.92.65-.25,3.86-.59.72-.27,1.22-.8.68-.29,2.17-.23.15.07.15.16.17.16.21.04.2-.14.28-.48.16-.12.59-.11.21.05.49.18,1.04.59.52.14.75-.17,1.76-1.08.74-.21.69-.05.55.06,1.61.38.47.02.47-.26.64-.68.09.28.17.34.21.31.22.16.4-.06.11-.35v-.43s.04-.3.04-.3l.32-.78.23-.18.25.52.09.39.1.3.19.21.36.14,1.48-.61.61-.03-.15.9-.14.5.16.12.32-.04.31.04.11-.02.42-.15.18-.02.25.13.35.41.21.18,1.17.78.57.28.72.16.48-.03.18-.18.09-.26.2-.29.05-.12.03-.39.08-.16.2-.11.47-.09.16-.07.45-.5.39-.58.16-.37.17-.61.25-.36,1.79-1.49.53-.6.37-.06h1.03s.72.27.72.27l1.08.95.57,1.23.09.14.54,1.77.38.44.54.47.48.52.21.62-.18.92-.85,1.61-.32.86-.14,1.6.15,1.63.35,1.51.73,2.06.16.85.09,1.72.09.41.39.92.08.41-.13.37-.68,1.03-.4,1.95-.48.92-1.46.71-.56.76-.43.9-.18.72Z"/>
</svg>